<svg width="8" height="30" viewBox="0 0 8 30" fill="none" xmlns="http://www.w3.org/2000/svg">
<path d="M3.7901 0.0146484C4.50479 0.0146484 5.11073 0.263239 5.60791 0.76042C6.12063 1.2576 6.37699 1.86354 6.37699 2.57824C6.37699 3.29294 6.12063 3.90664 5.60791 4.41936C5.11073 4.91654 4.50479 5.16513 3.7901 5.16513C3.0754 5.16513 2.46169 4.91654 1.94897 4.41936C1.45179 3.90664 1.2032 3.29294 1.2032 2.57824C1.2032 1.86354 1.45179 1.2576 1.94897 0.76042C2.46169 0.263239 3.0754 0.0146484 3.7901 0.0146484ZM0.527344 29.9854V28.9599C2.12765 28.4317 3.36283 27.6082 4.2329 26.4895C5.1185 25.3864 5.5613 24.2134 5.5613 22.9704C5.5613 22.6752 5.49139 22.4266 5.35155 22.2247C5.2428 22.0848 5.13404 22.0149 5.02528 22.0149C4.85437 22.0149 4.48149 22.1703 3.90662 22.481C3.62696 22.6209 3.33176 22.6908 3.02102 22.6908C2.25971 22.6908 1.65377 22.4655 1.2032 22.0149C0.752629 21.5643 0.527344 20.9429 0.527344 20.1505C0.527344 19.3892 0.814777 18.7366 1.38964 18.1928C1.98005 17.649 2.69474 17.3771 3.53374 17.3771C4.55917 17.3771 5.46808 17.8277 6.26046 18.7289C7.06838 19.6145 7.47234 20.7953 7.47234 22.2713C7.47234 23.8716 6.91301 25.3554 5.79436 26.7226C4.69124 28.1054 2.93557 29.193 0.527344 29.9854Z" fill="black"/>
</svg>
